<svg data-v-0dd9719b="" version="1.0" xmlns="http://www.w3.org/2000/svg" xmlns:xlink="http://www.w3.org/1999/xlink" width="100%" height="100%" viewBox="0 0 340.000000 250.000000" preserveAspectRatio="xMidYMid meet" color-interpolation-filters="sRGB" style="margin: auto;"> <rect data-v-0dd9719b="" x="0" y="0" width="100%" height="100%" fill="#ffffff" fill-opacity="1" class="background"></rect> <rect data-v-0dd9719b="" x="0" y="0" width="100%" height="100%" fill="url(#watermark)" fill-opacity="1" class="watermarklayer"></rect> <g data-v-0dd9719b="" fill="#fcbd05" class="iconlettersvg-g iconlettersvg" transform="translate(3.9208984375,83.35260965698649)"><g><g class="tp-name" transform="translate(0,0)"><g transform="scale(1.5000000000000002)"><g transform="translate(0, 0)"><g class="name-imagesvg"><g><rect fill="#fcbd05" fill-opacity="0" stroke-width="2" x="0" y="0" width="45.00168773437896" height="45" class="image-rect"></rect> <svg x="0" y="0" width="45.00168773437896" height="45" filtersec="colorsb8729648502" class="image-svg-svg primary" style="overflow: visible;"><svg xmlns="http://www.w3.org/2000/svg" viewBox="0 0 266.9 266.89"><g fill="#0ab584"><path d="M37.14 109.69H0v90.83a66.35 66.35 0 0 0 37.14 59.59z"></path><path d="M200.52 0H66.37a66.39 66.39 0 0 0-62.6 44.31h163.12v65.38H92.72v157.2h107.8a66.37 66.37 0 0 0 66.38-66.37V66.37A66.37 66.37 0 0 0 200.52 0z"></path></g></svg></svg> <!----></g></g></g><g transform="translate(45.00168773437896, 0)"><g class="name-imagesvg"><g><rect fill="#fcbd05" fill-opacity="0" stroke-width="2" x="0" y="0" width="44.40150808889658" height="45" class="image-rect"></rect> <svg x="0" y="0" width="44.40150808889658" height="45" filtersec="colorsb3012330296" class="image-svg-svg primary" style="overflow: visible;"><svg xmlns="http://www.w3.org/2000/svg" viewBox="0 0 263.33 266.89"><g fill="#a966fd"><path d="M105 244.81q-9.73-14.58-16.35-23.74a141.71 141.71 0 0 0-10.05-12.76c-4.57-4.84-9.31-8.05-14.21-9.77a46 46 0 0 0-9.8-2 136.06 136.06 0 0 0-14.81-.69H32v63.46a66.15 66.15 0 0 0 30.81 7.58h57zM93.52 92.5q-9.18-.21-24.55-.21H32v58.57h34.92q13.6 0 23.34-.43c6.49-.28 11.68-.72 15.52-1.27a35 35 0 0 0 5.79-1.24 24.67 24.67 0 0 0 12.92-9.64c3.08-4.52 4.69-10.24 4.7-17.39a34 34 0 0 0-1.56-10.64 23.51 23.51 0 0 0-4.58-8.14 24.54 24.54 0 0 0-7.4-5.76 34.39 34.39 0 0 0-10.15-3.24c-.9-.12-2.38-.24-4.36-.35s-4.56-.19-7.62-.26z"></path><path d="M197 0H62.8A66.39 66.39 0 0 0 0 44.9h85.37a309.13 309.13 0 0 1 35 1.71c9.86 1.14 17.93 2.85 24.27 5.2 12.64 4.68 22.85 13.1 30.39 25s11.33 25.6 11.32 40.81a78.79 78.79 0 0 1-4.35 26.6 64.16 64.16 0 0 1-12.93 21.67 66.31 66.31 0 0 1-21.48 15.56 99.11 99.11 0 0 1-23 7.26 114.44 114.44 0 0 1 22 18 157.47 157.47 0 0 1 12.75 16.15q7.26 10.26 16.34 24.91l12 19.15H197a66.37 66.37 0 0 0 66.37-66.37V66.37A66.37 66.37 0 0 0 197 0z"></path></g></svg></svg> <!----></g></g></g><g transform="translate(89.40319582327554, 0)"><g class="name-imagesvg"><g><rect fill="#fcbd05" fill-opacity="0" stroke-width="2" x="0" y="0" width="44.693778292184696" height="45" class="image-rect"></rect> <svg x="0" y="0" width="44.693778292184696" height="45" filtersec="colorsb5967333436" class="image-svg-svg primary" style="overflow: visible;"><svg xmlns="http://www.w3.org/2000/svg" viewBox="0 0 559.04 562.83"><g fill="#a966fd"><path d="M119.95 347.38h138.78l-68.7-159.95-70.08 159.95zm174.17 104.87H83l-.24.56-2.48 5.7c-2.1 4.87-5 11.69-8.43 19.55-6.75 15.72-15.2 35.55-22 52-4.53 11-8.32 20.46-10.36 26.17l-.28.77a66.05 66.05 0 0 0 27.16 5.81h271.06z"></path><path d="M492.67 0H66.37A66.36 66.36 0 0 0 0 66.37v286.05C54.44 221.47 129.23 64 129.24 63.94l.67-1.43h117.8l210 500.32h34.92A66.36 66.36 0 0 0 559 496.46V66.37A66.36 66.36 0 0 0 492.67 0z"></path></g></svg></svg> <!----></g></g></g><g transform="translate(134.09697411546023, 0)"><g class="name-imagesvg"><g><rect fill="#fcbd05" fill-opacity="0" stroke-width="2" x="0" y="0" width="43.47571801154564" height="45" class="image-rect"></rect> <svg x="0" y="0" width="43.47571801154564" height="45" filtersec="colorsb6966910813" class="image-svg-svg primary" style="overflow: visible;"><svg xmlns="http://www.w3.org/2000/svg" viewBox="0 0 257.84 266.89"><g fill="#fe5508"><path d="M39.12 100.06v117.4h54.77c11.11 0 19.91-.86 26.31-2.51 8.74-2.27 15.55-5.42 20.46-9.31h.05-.05A50.88 50.88 0 0 0 156.05 185c2.92-6.9 4.43-15.25 4.43-25.07 0-11.23-1.62-20.55-4.74-28A49.94 49.94 0 0 0 142 113.07l.09.07-.08-.07a51.11 51.11 0 0 0-21.68-10.74c-6.24-1.48-15.67-2.27-28.11-2.27zm81.21 2.27h.02-.02z"></path><path d="M191.47 0H57.31A66.33 66.33 0 0 0 0 32.91h84.57c25.39 0 44.79 1.57 58.39 4.78 18.15 4.34 33.81 12.1 46.84 23.25a108.44 108.44 0 0 1 29.69 40.9c6.8 16.17 10.14 35.93 10.14 59.28q0 30.84-9.52 53.48c-7.74 18.28-18.85 33.19-33.28 44.56a86.19 86.19 0 0 1-11.7 7.72h16.34a66.37 66.37 0 0 0 66.37-66.37V66.37A66.37 66.37 0 0 0 191.47 0z"></path></g></svg></svg> <!----></g></g></g><g transform="translate(177.57269212700587, 0)"><g class="name-imagesvg"><g><rect fill="#fcbd05" fill-opacity="0" stroke-width="2" x="0" y="0" width="43.86356830229377" height="45" class="image-rect"></rect> <svg x="0" y="0" width="43.86356830229377" height="45" filtersec="colorsb2518135503" class="image-svg-svg primary" style="overflow: visible;"><svg xmlns="http://www.w3.org/2000/svg" viewBox="0 0 260.12 266.89"><path d="M193.75 0H59.6A66.37 66.37 0 0 0 0 37.15h164.64v50.38H33.46v51.54h121.78v55.21H33.46v42.19h136v30.42h24.32a66.36 66.36 0 0 0 66.37-66.37V66.37A66.37 66.37 0 0 0 193.75 0z" fill="#fdab02"></path></svg></svg> <!----></g></g></g></g></g></g> <g data-gra="path-slogan" fill-rule="" class="tp-slogan" fill="#333333" transform="translate(139.01910018920898,73.50758361816406)"><!----> <!----> <g transform="scale(1, 1)"><g transform="scale(1.2000000000000002)"><path d="M0.62-3.94C0.62-3.30 0.71-2.72 0.89-2.21C1.06-1.71 1.31-1.28 1.62-0.93C1.93-0.58 2.30-0.32 2.74-0.13C3.17 0.05 3.64 0.14 4.16 0.14C4.69 0.14 5.17 0.06 5.59-0.11C6.01-0.29 6.34-0.50 6.60-0.77L6.60-4.08L4.02-4.08L4.02-3.25L5.69-3.25L5.69-1.20C5.53-1.06 5.32-0.94 5.07-0.86C4.82-0.77 4.55-0.73 4.27-0.73C3.85-0.73 3.47-0.81 3.15-0.96C2.83-1.11 2.55-1.33 2.33-1.61C2.11-1.89 1.95-2.23 1.83-2.62C1.71-3.02 1.66-3.46 1.66-3.96C1.66-4.45 1.72-4.89 1.84-5.28C1.97-5.67 2.14-6.01 2.36-6.28C2.59-6.56 2.86-6.77 3.18-6.92C3.50-7.07 3.86-7.14 4.26-7.14C4.66-7.14 4.99-7.07 5.25-6.93C5.51-6.79 5.74-6.62 5.94-6.41L6.50-7.04C6.27-7.28 5.97-7.51 5.61-7.71C5.25-7.91 4.79-8.02 4.25-8.02C3.72-8.02 3.24-7.92 2.80-7.73C2.36-7.55 1.97-7.28 1.65-6.92C1.33-6.57 1.07-6.14 0.89-5.64C0.71-5.14 0.62-4.57 0.62-3.94ZM8.48-7.87L8.48 0L13.14 0L13.14-0.85L9.48-0.85L9.48-3.71L12.47-3.71L12.47-4.56L9.48-4.56L9.48-7.03L13.02-7.03L13.02-7.87ZM17.71 0.14C18.21 0.14 18.66 0.05 19.07-0.14C19.49-0.34 19.84-0.61 20.14-0.97C20.44-1.32 20.67-1.75 20.84-2.26C21.00-2.77 21.08-3.34 21.08-3.97C21.08-4.60 21.00-5.16 20.84-5.66C20.67-6.16 20.44-6.58 20.14-6.93C19.84-7.28 19.49-7.55 19.07-7.73C18.66-7.92 18.21-8.02 17.71-8.02C17.22-8.02 16.76-7.92 16.35-7.74C15.94-7.56 15.58-7.29 15.29-6.94C14.99-6.59 14.76-6.17 14.60-5.67C14.43-5.17 14.35-4.60 14.35-3.97C14.35-3.34 14.43-2.77 14.60-2.26C14.76-1.75 14.99-1.32 15.29-0.97C15.58-0.61 15.94-0.34 16.35-0.14C16.76 0.05 17.22 0.14 17.71 0.14ZM17.71-0.73C17.36-0.73 17.04-0.81 16.76-0.96C16.47-1.11 16.23-1.33 16.03-1.61C15.82-1.90 15.66-2.24 15.55-2.63C15.44-3.03 15.38-3.48 15.38-3.97C15.38-4.46 15.44-4.90 15.55-5.29C15.66-5.68 15.82-6.02 16.03-6.29C16.23-6.56 16.47-6.77 16.76-6.92C17.04-7.07 17.36-7.14 17.71-7.14C18.06-7.14 18.38-7.07 18.67-6.92C18.95-6.77 19.19-6.56 19.40-6.29C19.60-6.02 19.76-5.68 19.87-5.29C19.98-4.90 20.04-4.46 20.04-3.97C20.04-3.48 19.98-3.03 19.87-2.63C19.76-2.24 19.60-1.90 19.40-1.61C19.19-1.33 18.95-1.11 18.67-0.96C18.38-0.81 18.06-0.73 17.71-0.73ZM23.77-4.14L23.77-7.07L25.09-7.07C25.71-7.07 26.18-6.96 26.51-6.76C26.84-6.55 27-6.18 27-5.66C27-5.15 26.84-4.77 26.51-4.52C26.18-4.27 25.71-4.14 25.09-4.14ZM27.10 0L28.22 0L26.23-3.43C26.77-3.57 27.20-3.82 27.52-4.19C27.84-4.56 28.00-5.05 28.00-5.66C28.00-6.07 27.93-6.42 27.79-6.70C27.66-6.98 27.47-7.20 27.22-7.38C26.98-7.56 26.69-7.68 26.35-7.76C26.01-7.83 25.64-7.87 25.24-7.87L22.78-7.87L22.78 0L23.77 0L23.77-3.32L25.20-3.32ZM29.29-3.94C29.29-3.30 29.38-2.72 29.56-2.21C29.73-1.71 29.98-1.28 30.29-0.93C30.60-0.58 30.97-0.32 31.40-0.13C31.84 0.05 32.31 0.14 32.83 0.14C33.36 0.14 33.83 0.06 34.25-0.11C34.67-0.29 35.01-0.50 35.27-0.77L35.27-4.08L32.69-4.08L32.69-3.25L34.36-3.25L34.36-1.20C34.20-1.06 33.99-0.94 33.74-0.86C33.49-0.77 33.22-0.73 32.94-0.73C32.52-0.73 32.14-0.81 31.82-0.96C31.49-1.11 31.22-1.33 31.00-1.61C30.78-1.89 30.61-2.23 30.50-2.62C30.38-3.02 30.32-3.46 30.32-3.96C30.32-4.45 30.39-4.89 30.51-5.28C30.63-5.67 30.81-6.01 31.03-6.28C31.26-6.56 31.53-6.77 31.85-6.92C32.17-7.07 32.53-7.14 32.93-7.14C33.33-7.14 33.66-7.07 33.92-6.93C34.18-6.79 34.41-6.62 34.61-6.41L35.17-7.04C34.94-7.28 34.64-7.51 34.28-7.71C33.91-7.91 33.46-8.02 32.92-8.02C32.39-8.02 31.90-7.92 31.46-7.73C31.02-7.55 30.64-7.28 30.32-6.92C29.99-6.57 29.74-6.14 29.56-5.64C29.38-5.14 29.29-4.57 29.29-3.94ZM37.15-7.87L37.15 0L38.15 0L38.15-7.87ZM43.66-3.20L41.29-3.20L41.66-4.40C41.81-4.84 41.94-5.28 42.07-5.72C42.20-6.15 42.32-6.60 42.44-7.06L42.49-7.06C42.62-6.60 42.75-6.15 42.88-5.72C43.00-5.28 43.14-4.84 43.28-4.40ZM43.91-2.40L44.65 0L45.72 0L43.06-7.87L41.93-7.87L39.26 0L40.28 0L41.04-2.40Z" transform="translate(-0.624, 8.016)"></path></g></g></g></g><defs v-gra="od"></defs></svg>